<?xml version="1.0" encoding="UTF-8"?>
<svg id="Layer_2" data-name="Layer 2" xmlns="http://www.w3.org/2000/svg" viewBox="0 0 1381.6 578.13">
  <defs>
    <style>
      .cls-1 {
        fill: #fff;
      }

      .cls-1, .cls-2 {
        stroke-width: 0px;
      }

      .cls-2 {
        fill: #ff5a4d;
      }
    </style>
  </defs>
  <path class="cls-2" d="M56.79,62.16v73.75c0,12.43,10.48,30.83,21.12,37.19l140.8,83.4,82.54-48.92L56.79,62.16ZM218.71,322.19l-140.97,83.57c-10.69,6.36-21.18,24.74-21.18,37.21v73.06l244.53-144.97-82.38-48.87h0ZM47.52,578.13c-23.6,0-47.52-18.25-47.52-53.2v-81.95c0-32.44,21.06-69.29,48.95-85.84l114.28-67.78-114.15-67.63C21.23,205.2.25,168.32.25,135.91V53.19C.25,18.25,24.07,0,47.65,0c10.13,0,20.3,2.99,30.26,8.98l258.15,153.52c17.98,10.67,28.26,27.17,28.26,45.08s-10.33,34.48-28.3,45.16l-61.88,36.61,61.82,36.59c18.03,10.71,28.36,27.15,28.36,45.12s-10.33,34.45-28.36,45.09l-258.22,153.06c-9.98,5.95-20.12,8.92-30.23,8.92"/>
  <path class="cls-1" d="M555.15,384.95c7.86,17.46,26.55,29.33,47.38,29.33,37.78,0,60.32-30.47,60.32-70.48s-22.55-71.05-60.32-71.05c-20.28,0-39.52,12.43-47.38,29.33v82.88h0ZM555.15,469.52h-70.48V103.01h70.48v135.34c11.3-13.52,36.12-26.56,63.16-26.56,73.29,0,114.43,59.82,114.43,132.01s-41.14,131.36-114.43,131.36c-27.04,0-51.86-12.99-63.16-26.47v20.84h0Z"/>
  <path class="cls-1" d="M1039.2,211.79c51.88,0,82.89,36.12,82.89,93.05v164.69h-69.94v-149.98c0-27.1-11.84-45.1-36.07-45.1-18.03,0-34.4,11.24-38.95,32.69v162.39h-70.45v-149.98c0-27.1-11.21-45.1-35.47-45.1-18.05,0-34.98,11.24-39.56,32.69v162.39h-69.85v-252.04h69.85v20.85c12.47-15.75,35.6-26.55,63.81-26.55,29.82,0,53.57,13.59,67.6,32.14,16.33-18.03,40.62-32.14,76.14-32.14"/>
  <path class="cls-1" d="M1271.08,211.79c63.23,0,103.23,37.24,110.52,90.79h-68.73c-4-19.13-19.15-30.98-41.79-30.98-32.04,0-51.78,29.33-51.78,72.2s19.74,71.62,51.78,71.62c22.64,0,37.79-11.9,41.79-30.97h68.73c-7.29,54.04-47.29,90.71-110.52,90.71-71.55,0-121.24-53.62-121.24-131.37s49.69-132.01,121.24-132.01"/>
</svg>